<svg width="240" height="500" viewBox="0 0 240 500" fill="none" xmlns="http://www.w3.org/2000/svg">
<path d="M110.125 0.00249365C131.282 -0.145662 152.208 6.31277 168.762 18.1007C174.442 22.1453 185.144 32.582 190.874 39.5823C197.201 44.8215 206.353 54.0235 210.964 59.947C241.6 99.3078 248.287 151.867 229.625 206.633C220.08 234.643 208.368 256.269 190.812 278.299C182.446 288.797 179.141 293.754 176.031 300.468C170.372 312.689 168.419 323.274 169.048 338.315C169.506 349.292 168.971 353.345 166.352 358.714C162.899 365.795 156.355 370.073 149.12 369.977C146.935 369.947 144.351 369.611 143.377 369.228C138.408 367.274 134.49 361.93 133.282 355.455C133.124 354.609 132.932 352.825 132.751 350.641C131.847 350.77 130.928 350.832 129.997 350.819C128.512 350.8 126.843 350.634 125.62 350.413C125.032 356.09 125.232 362.582 126.182 370.799C126.994 368.678 127.778 367.62 128.906 366.832C132.605 364.247 134.77 367.031 137.649 378.078C138.567 381.601 141.069 388.91 143.209 394.322C143.359 394.703 143.503 395.075 143.646 395.437C143.649 395.427 143.652 395.416 143.655 395.406C145.265 389.268 146.193 387.273 148.03 385.989C151.729 383.404 153.894 386.188 156.773 397.235C157.69 400.758 160.192 408.067 162.332 413.479C167.154 425.674 167.793 428.431 166.933 433.302C165.256 442.797 155.848 449.695 147.057 447.874C138.171 446.034 132.254 438.151 132.728 428.882C131.143 429.089 129.528 429.047 127.933 428.717C118.898 426.846 112.932 418.727 113.635 409.255C113.746 407.752 114.039 406.197 114.607 404.271C108.448 406.594 101.472 405.096 97.3011 398.931C94.6346 394.99 93.58 392.462 92.9218 385.848C89.6158 386.51 86.2228 386.092 83.2601 384.473C83.3107 394.604 84.3146 406.189 86.2183 417.397C87.6586 425.876 88.2979 432.267 88.0662 437.548C89.9455 431.93 90.7709 430.666 92.2205 429.653C92.9695 429.13 93.6774 428.701 93.793 428.701C94.6907 428.702 96.506 430.248 97.2152 431.617C98.3522 433.811 104.355 449.394 107.08 457.037C109.038 451.136 109.866 449.843 111.344 448.811C112.093 448.287 112.801 447.858 112.916 447.858C113.814 447.859 115.629 449.406 116.339 450.774C117.721 453.441 126.291 475.883 127.429 479.814C129.538 487.104 127.332 493.718 121.48 497.643C114.683 502.204 105.982 499.96 101.595 492.515C100.104 489.984 99.907 489.051 99.9577 484.759C99.9785 483 100.096 481.521 100.483 479.55C94.031 482.601 86.4648 480.134 82.4711 473.357C80.98 470.827 80.7835 469.894 80.8342 465.602C80.8725 462.37 81.2341 460.083 83.0034 453.955C73.729 468.525 55.4667 468.529 48.2664 453.765C46.9648 451.096 46.0227 448.579 45.4166 445.698C38.9059 445.56 32.6854 441.872 29.1429 434.608C24.696 425.489 24.4197 418.143 27.5471 392.036C29.5391 375.404 29.7566 372.707 29.8031 364.108C29.855 354.515 29.5799 351.455 28.0709 344.837C26.3253 337.181 24.0452 333.32 16.8985 325.929C9.10334 317.867 7.68452 316.002 4.89212 310.135C0.949089 301.853 0.0820896 290.55 2.50822 279.066C3.58437 273.97 6.10858 268.292 7.29657 268.292C9.57752 268.292 10.5869 272.089 11.4294 283.844C12.5313 299.22 13.7794 304.187 20.2862 311.537C20.2331 307.243 20.676 302.747 21.6317 298.223C22.7079 293.127 25.2321 287.449 26.4201 287.449C28.701 287.449 29.7104 291.246 30.5529 303.002C31.8442 321.021 33.3342 324.746 43.2558 334.762C48.4881 340.045 51.4507 343.603 53.6682 347.575C54.1632 344.846 54.9088 342.432 56.0157 339.48C57.4898 335.551 61.7466 330.503 64.808 329.054C70.6215 326.302 78.0304 329.384 81.3609 335.941C82.7965 338.766 83.561 341.865 84.1211 348.124C87.7759 346.482 92.0282 347.112 95.4962 349.433C93.943 335.689 94.4637 328.716 97.514 319.803C102.172 306.192 112.137 299.531 119.099 305.376C122.583 308.3 123.421 311.322 123.9 322.685C123.961 324.118 124.02 325.371 124.081 326.473C128.661 322.046 133.995 320.985 138.222 324.533C138.295 324.593 138.365 324.655 138.435 324.716C138.416 323.21 138.367 321.485 138.286 319.525C137.144 291.792 143.894 274.119 165.78 247.554C170.086 242.327 174.307 236.314 178.336 229.734C176.158 231.462 174.502 231.809 173.946 230.366C173.396 228.934 176.548 220.081 181.471 209.237C183.856 203.982 186.618 197.267 187.608 194.314C193.824 175.779 195.695 149.351 192.221 129.155C190.296 117.965 188.03 110.701 183.676 102.858C186.202 114.957 186.795 128.39 185.621 143.867C185.278 148.395 184.707 153.885 184.351 156.065C183.318 162.406 180.374 173.011 178.056 178.743C174.79 186.822 168.211 199.703 165.204 203.905C163.235 206.658 161.294 208.824 159.624 210.238C157.056 226.81 150.843 239.297 139.643 250.597C133.668 256.625 132.269 257.701 127.109 260.229C121.456 262.998 119.589 263.508 106.883 265.758C97.4988 267.42 93.7422 269.751 86.0119 278.707C79.57 286.171 76.3032 288.178 70.6683 288.135C62.1341 288.069 54.5255 282.834 50.2002 274.049C49.2173 272.052 48.808 270.905 48.6436 268.752C41.3058 267.661 34.9051 262.667 31.0767 254.892C29.6062 251.905 29.4165 250.82 29.4165 245.419C29.4165 238.065 30.2518 235.962 37.2097 225.785C43.1326 217.121 44.5086 213.563 44.8675 205.976C45.1249 200.536 44.9947 199.642 43.1923 194.449C41.1301 188.506 41.0757 186.021 42.9477 183.171C45.0229 180.012 51.355 178.913 56.6805 180.787C61.5468 182.5 69.112 187.373 73.2362 191.452C76.6272 194.805 77.4876 196.082 78.3485 199.035C78.603 199.909 78.7861 200.625 78.9051 201.274C83.4833 203.523 89.0378 207.324 92.3597 210.609C95.7506 213.962 96.6111 215.24 97.472 218.192C98.3354 221.156 98.3929 222.309 97.8194 225.159C97.4409 227.037 96.6079 229.096 95.9677 229.734C94.6581 231.041 93.0114 230.719 92.5221 229.063C90.3925 221.84 82.6613 213.517 76.03 211.166C75.4333 211.454 74.8304 211.451 74.339 211.179C74.3299 211.62 74.5385 212.492 74.9291 214.088C76.0914 218.841 76.0803 227.596 74.9039 233.108C74.4799 235.095 73.9418 236.942 73.2436 238.749C73.5172 238.592 73.7864 238.446 74.0504 238.311C78.8122 235.868 81.8189 235.085 90.0383 234.151C99.2633 233.103 104.955 230.498 111.249 224.444C118.02 217.931 122.644 211.19 125.679 202.979C125.053 202.822 124.38 202.601 123.668 202.309C117.63 199.836 92.3388 186.073 85.8373 181.722C78.2465 176.641 73.1888 171.331 69.4927 164.315C68.3728 163.636 67.4293 163.043 66.7138 162.565C56.7127 155.871 51.1065 148.78 47.2215 137.91C43.2014 126.659 41.5701 109.747 43.4239 98.5277C45.6251 85.2059 53.1969 69.9198 62.7332 59.5438C72.6597 48.7439 85.0839 41.554 97.7998 39.2521C103.973 38.1347 117.105 38.156 123.647 39.2942C140.986 42.3103 157.139 51.8559 166.517 64.6287C167.549 66.0333 168.536 67.4488 169.483 68.8754C175.891 73.0025 181.445 78.0706 185.641 83.7858C201.512 105.403 207.295 129.386 204.745 163.024C204.621 164.663 204.465 166.429 204.302 168.117C210.567 142.295 210.835 115.795 204.866 92.877C200.98 77.9592 192.482 61.6533 182.199 48.3994C171.836 40.4834 164.178 36.9085 151.896 34.0204C129.685 28.7988 108.381 31.4293 85.8607 42.1761C63.2201 52.9797 49.9115 67.1682 38.5842 92.5776C31.9949 107.359 30.5317 114.275 30.0683 132.833C29.7228 146.656 30.2305 154.327 32.1534 164.353C32.9916 168.722 33.03 169.816 32.3728 170.605C30.9237 172.347 28.817 171.757 26.858 169.059C23.5765 164.54 21.3151 156.902 20.1975 146.556C17.38 120.485 19.8975 104.598 30.2354 83.2039C43.9406 54.8394 63.3995 37.1362 92.8686 26.221C100.544 23.3782 109.692 20.9202 116.102 19.979C118.961 19.5588 124.877 19.1901 129.249 19.1596C136.576 19.1083 143.875 19.8494 150.974 21.3297C145.51 18.4603 139.925 16.5452 132.772 14.8633C110.562 9.64171 89.258 12.2722 66.7372 23.0191C44.0966 33.8226 30.788 48.0111 19.4607 73.4205C12.8714 88.202 11.4082 95.1182 10.9448 113.676C10.5993 127.499 11.107 135.17 13.0299 145.196C13.8681 149.565 13.9065 150.658 13.2493 151.448C11.8002 153.19 9.69352 152.6 7.7345 149.902C4.45298 145.383 2.19166 137.744 1.07396 127.399C-1.7435 101.328 0.773963 85.441 11.1119 64.0468C24.8171 35.6823 44.276 17.9791 73.7451 7.06386C81.4202 4.22107 90.5682 1.76307 96.979 0.821908C99.8374 0.40167 105.754 0.0329899 110.125 0.00249365ZM112.561 478.633C110.362 486.087 110.844 488.723 114.404 488.723C116.85 488.723 117.655 486.734 116.807 482.788C116.449 481.123 115.651 478.478 115.033 476.91L113.91 474.058L112.561 478.633ZM93.4372 459.476C91.2385 466.93 91.7207 469.566 95.2805 469.566C97.7267 469.566 98.5317 467.577 97.6831 463.631C97.3254 461.966 96.5273 459.321 95.9098 457.753L94.7865 454.901L93.4372 459.476ZM71.73 343.043C69.8126 337.519 66.9254 339.075 65.5308 346.383C63.2055 358.569 63.8206 378.964 67.0948 398.24C70.2596 416.871 69.5758 425.424 64.2179 434.259C62.1416 437.683 59.5771 440.337 56.7711 442.225C56.8983 443.54 57.0793 444.608 57.3164 445.397C57.791 446.976 59.1066 449.09 60.4492 450.429C62.3508 452.326 63.1985 452.738 65.1918 452.738C68.4635 452.738 71.3124 450.721 73.7348 446.689C77.3905 440.605 77.7402 434.057 75.1887 419.497C72.6207 404.842 71.9043 397.103 71.886 383.817C71.871 373.283 72.1704 368.446 73.5322 363.49C73.3991 361.63 73.276 359.503 73.1512 357.035C72.8149 350.394 72.2081 344.42 71.73 343.043ZM147.028 419.717C144.723 426.838 144.163 429.326 144.483 431.03C145.015 433.855 147.092 436.175 149.501 436.636C151.055 436.933 151.795 436.658 153.475 435.159C155.426 433.419 155.537 433.104 155.481 429.457C155.437 426.521 154.771 423.798 152.702 418.092L149.983 410.587L147.028 419.717ZM40.7384 350.332C40.9491 353.782 41.0124 357.961 40.9998 363.44C40.9711 375.957 40.6827 380.71 39.2238 392.716C37.2728 408.772 36.871 421.84 38.193 426.24C38.6675 427.819 39.9831 429.932 41.3257 431.272C42.7045 432.647 43.5298 433.239 44.6387 433.462C44.8274 427.906 45.5165 420.827 46.6706 411.193C48.6626 394.561 48.8801 391.864 48.9266 383.265C48.9785 373.672 48.7034 370.613 47.1944 363.994C45.9091 358.356 44.3328 354.778 40.7384 350.332ZM127.904 400.56C125.599 407.681 125.04 410.169 125.36 411.873C125.891 414.698 127.968 417.018 130.378 417.479C131.932 417.776 132.671 417.501 134.352 416.002C136.302 414.262 136.413 413.947 136.358 410.3C136.313 407.364 135.647 404.641 133.579 398.935L130.86 391.43L127.904 400.56ZM112.509 315.31C111.83 314.591 109.724 317.682 108.654 320.968C105.834 329.631 105.449 338.959 107.305 353.681C108.543 363.515 108.397 368.152 106.692 373.098C106.003 375.097 105.07 376.886 103.96 378.452C104.351 385.187 104.725 387.535 105.625 389.564C107.074 392.833 108.824 393.776 111.47 392.715C116.097 390.862 116.817 386.421 114.943 371.313C113.187 357.155 113.342 349.846 115.819 341.515C115.07 339.903 114.503 338.147 114.158 336.298C113.845 334.621 113.4 329.269 113.168 324.405C112.935 319.54 112.639 315.447 112.509 315.31ZM90.8535 362.2C89.1315 357.239 86.6286 357.989 85.1258 363.487C85.4404 367.152 85.8204 368.871 86.5012 370.407C87.9109 373.586 89.6036 374.564 92.129 373.641C91.7812 368.073 91.2694 363.398 90.8535 362.2ZM216.783 92.6665C223.815 121.819 221.826 154.241 210.501 187.476C200.956 215.486 189.244 237.112 171.689 259.142C163.323 269.64 160.018 274.597 156.908 281.311C151.249 293.532 149.295 304.117 149.924 319.158C150.383 330.135 149.847 334.187 147.229 339.557C146.156 341.757 144.784 343.685 143.186 345.297C143.484 350.879 143.822 352.729 144.657 354.346C147.831 360.489 155.104 358.718 157.125 351.311C157.603 349.558 157.692 345.561 157.409 338.683C156.267 310.949 163.018 293.277 184.903 266.711C198.1 250.692 210.528 227.316 218.927 202.721C229.333 172.245 231.158 139.557 223.99 112.034C222.344 105.715 219.869 99.1467 216.783 92.6665ZM131.633 334.467C131.081 333.883 129.589 335.81 128.475 338.314C129.598 338.896 130.825 339.043 132.027 338.79C131.867 336.279 131.716 334.555 131.633 334.467ZM140.787 165.394C141.819 172.288 141.918 179.57 141.038 187.127C138.873 205.697 132.594 219.258 120.519 231.44C114.544 237.468 113.145 238.544 107.985 241.072C102.333 243.841 100.466 244.351 87.7599 246.6C78.3753 248.262 74.6187 250.594 66.8885 259.55C64.2833 262.568 62.1966 264.693 60.2634 266.152C61.7155 273.442 67.7682 278.165 72.9925 275.68C74.0924 275.157 76.1945 273.268 77.6632 271.482C83.1126 264.859 88.8181 259.703 93.1739 257.468C97.9357 255.025 100.942 254.242 109.162 253.308C118.387 252.26 124.079 249.655 130.372 243.602C141.998 232.419 147.299 220.564 149.083 201.754C150.038 191.686 147.836 178.682 143.836 170.765C142.85 168.813 141.869 167.066 140.787 165.394ZM56.2426 191.792C54.9559 191.411 54.9516 191.442 55.8056 194.931C56.9679 199.684 56.9568 208.439 55.7804 213.951C54.4713 220.085 52.0897 224.891 47.1916 231.278C41.8084 238.3 40.478 241.299 40.9065 245.445C41.5291 251.46 45.25 256.075 49.4019 257.014C50.3602 253.971 52.336 250.788 56.3332 244.942C62.2561 236.278 63.6321 232.72 63.991 225.133C64.2484 219.693 64.1181 218.8 62.3158 213.606C60.2535 207.663 60.1992 205.178 62.0712 202.328C63.0174 200.887 64.8494 199.877 67.0668 199.379C63.7911 195.767 59.8197 192.853 56.2426 191.792ZM74.7526 116.48C73.2473 123.02 73.239 135.866 74.7358 142.897C75.8461 148.114 77.3899 152.648 79.5036 156.699C101.911 170.823 109.384 176.47 111.057 180.499C111.654 181.937 111.458 182.986 110.667 183.573C119.753 189.537 124.944 193.395 127.733 196.263C128.759 192.121 129.484 187.606 129.96 182.597C130.915 172.529 128.713 159.524 124.713 151.608C123.225 148.663 121.75 146.181 119.92 143.728C117.896 141.616 115.714 139.224 113.908 137.109C113.571 136.714 113.233 136.324 112.895 135.937C110.854 133.963 108.458 131.789 105.582 129.272C104.008 127.895 101.46 125.319 98.9184 122.579C91.8572 117.133 84.7719 113.619 77.7855 112.129L75.8489 111.715L74.7526 116.48ZM132 69.3328C113.652 68.2313 96.6436 76.7241 85.7337 92.1679C90.6492 96.1832 98.4146 104.055 103.204 110.016C103.223 110.04 103.242 110.063 103.261 110.087C106.812 112.672 112.92 118.541 117.992 124.134C122.675 128.071 126.697 132.527 130.026 137.423C131.535 138.805 133.103 140.12 134.752 141.387C151.057 153.916 160.091 172.331 160.722 193.735C161.239 192.549 161.781 191.327 162.347 190.08C164.732 184.825 167.494 178.11 168.485 175.157C174.701 156.621 176.572 130.193 173.098 109.998C170.679 95.9368 167.723 88.0742 160.76 77.4727C152.697 72.642 143.253 70.0083 132 69.3328ZM55.6291 97.3229C54.1238 103.863 54.1155 116.709 55.6123 123.74C57.0985 130.722 59.3594 136.483 62.7276 141.496C61.5775 133.142 61.4386 124.395 62.5474 117.685C63.6588 110.958 66.1411 103.731 69.5525 96.888C65.9072 95.0511 62.2712 93.7413 58.662 92.9714L56.7254 92.558L55.6291 97.3229ZM112.876 50.1757C92.8436 48.9731 74.4062 59.2073 63.7613 77.439C62.8629 78.9772 62.1286 80.3941 62.1281 80.5876C62.1281 80.781 63.9857 81.5366 66.2554 82.2667C69.3902 83.2751 72.7289 84.6408 75.8899 86.1795C77.7597 83.498 79.761 80.9811 81.8567 78.7009C91.7832 67.901 104.207 60.7111 116.923 58.4092C122.732 57.3578 134.701 57.3147 141.545 58.2614C133.502 53.4653 124.087 50.8487 112.876 50.1757Z" fill="#0D0D0D"/>
</svg>
