<svg width="387" height="500" viewBox="0 0 387 500" fill="none" xmlns="http://www.w3.org/2000/svg">
<path fill-rule="evenodd" clip-rule="evenodd" d="M101.02 0.85435C94.3421 1.83296 84.8128 4.38889 76.8177 7.34501C46.1207 18.6951 25.8511 37.1034 11.5748 66.598C0.806024 88.8447 -1.81611 105.364 1.11875 132.474C2.28302 143.232 4.6383 151.175 8.05658 155.874C10.0972 158.679 12.2914 159.293 13.8008 157.482C14.4855 156.66 14.446 155.524 13.5728 150.981C11.5698 140.556 11.0411 132.579 11.401 118.204C11.8838 98.9073 13.4079 91.7158 20.2718 76.3454C32.0711 49.9236 45.9341 35.1703 69.5181 23.9363C92.9773 12.7613 115.168 10.0252 138.304 15.4548C152.149 18.7046 160.354 22.7896 172.591 32.5269C190.384 46.684 207.318 73.2625 213.402 96.5772C220.869 125.197 218.968 159.187 208.129 190.877C199.38 216.452 186.433 240.759 172.687 257.416C149.889 285.041 142.858 303.416 144.048 332.255C144.343 339.408 144.249 343.564 143.751 345.387C141.646 353.089 134.07 354.93 130.764 348.542C129.735 346.554 129.431 344.227 129.063 335.541C128.564 323.725 127.691 320.583 124.061 317.542C116.808 311.465 106.429 318.391 101.577 332.544C98.1961 342.405 97.7986 349.982 99.8119 366.186C101.764 381.896 101.014 386.513 96.1943 388.441C93.4377 389.544 91.6155 388.563 90.1054 385.164C89.0622 382.815 88.6953 380.054 88.2291 371.044C87.5533 357.983 86.8171 353.383 84.751 349.324C81.2817 342.506 73.5643 339.301 67.5086 342.163C64.3196 343.67 59.8855 348.919 58.3499 353.005C55.4813 360.641 54.9406 364.816 54.9609 379.187C54.98 393.003 55.7265 401.05 58.4015 416.29C61.0593 431.43 60.695 438.239 56.8869 444.565C54.3635 448.757 51.3955 450.855 47.9874 450.855C45.9111 450.855 45.0284 450.426 43.0476 448.454C41.6489 447.061 40.2783 444.863 39.7841 443.221C38.4071 438.646 38.8255 425.057 40.8579 408.362C42.3776 395.877 42.6776 390.935 42.7075 377.919C42.747 360.747 42.091 355.854 38.5625 346.999C35.8225 340.122 32.8405 335.942 25.1378 328.179C14.8027 317.763 13.2506 313.89 11.9054 295.153C11.0277 282.928 9.97621 278.98 7.59991 278.98C6.3624 278.98 3.73325 284.885 2.6123 290.184C0.0850523 302.126 0.988197 313.879 5.09561 322.491C8.00436 328.592 9.48198 330.531 17.6019 338.914C25.0467 346.6 27.4224 350.614 29.2407 358.575C30.8126 365.458 31.0992 368.639 31.0451 378.614C30.9967 387.556 30.7699 390.36 28.6949 407.655C25.4371 434.802 25.7244 442.441 30.3566 451.923C37.9485 467.463 57.3493 467.27 66.8934 451.56C72.4746 442.373 73.1866 433.479 69.89 414.106C66.4794 394.062 65.8387 372.855 68.2608 360.183C69.7136 352.584 72.7211 350.966 74.7184 356.709C75.2165 358.142 75.8483 364.354 76.1986 371.26C76.9648 386.385 77.5979 389.242 81.4352 394.904C89.1711 406.318 106.168 402.346 111.137 387.963C112.914 382.82 113.066 377.998 111.776 367.771C109.843 352.463 110.244 342.763 113.181 333.755C114.296 330.338 116.489 327.124 117.197 327.872C117.332 328.015 117.641 332.271 117.883 337.329C118.125 342.387 118.589 347.952 118.915 349.696C120.174 356.428 124.254 361.985 129.43 364.017C130.444 364.415 133.136 364.766 135.413 364.796C142.949 364.897 149.766 360.449 153.363 353.085C156.091 347.502 156.649 343.287 156.171 331.873C155.516 316.233 157.551 305.226 163.446 292.519C166.685 285.537 170.128 280.382 178.842 269.467C197.129 246.559 209.329 224.071 219.272 194.945C238.712 137.996 231.746 83.3434 199.834 42.4144C194.201 35.1906 182.061 23.2773 175.794 18.8219C158.549 6.56427 136.752 -0.151522 114.714 0.00259491C110.16 0.0343061 103.998 0.417369 101.02 0.85435ZM101.875 40.8156C88.6291 43.2091 75.6871 50.6853 65.347 61.9156C55.4131 72.705 47.5263 88.6005 45.2335 102.453C43.3024 114.12 45.0016 131.705 49.1893 143.404C53.2362 154.708 59.0754 162.08 69.4932 169.041C76.2655 173.566 102.61 187.878 108.9 190.449C113.988 192.529 117.161 191.24 115.685 187.69C113.917 183.441 105.934 177.459 81.8027 162.302C68.0634 153.673 61.1988 144.003 57.9296 128.669C56.3704 121.358 56.3787 108.001 57.9468 101.2L59.0887 96.2455L61.1064 96.6755C73.5618 99.3278 86.3216 108.137 98.7343 122.651C102.353 126.882 107.413 132.179 109.981 134.421C121.627 144.597 125.713 149.358 129.909 157.649C134.076 165.88 136.369 179.402 135.374 189.872C133.516 209.431 127.994 221.758 115.884 233.386C109.329 239.682 103.399 242.39 93.7893 243.48C85.2274 244.451 82.0963 245.264 77.1361 247.805C72.5988 250.129 66.6558 255.49 60.9791 262.377C59.4492 264.234 57.2595 266.199 56.1137 266.743C50.295 269.505 43.4896 263.7 42.6107 255.224C42.1642 250.912 43.5501 247.793 49.1581 240.492C54.2603 233.85 56.7411 228.853 58.1047 222.474C59.3301 216.743 59.3416 207.639 58.1308 202.697C57.2411 199.068 57.2455 199.037 58.5862 199.433C65.638 201.52 74.1637 210.505 76.4565 218.268C76.9661 219.991 78.6819 220.325 80.0461 218.967C80.713 218.303 81.5804 216.161 81.9747 214.209C82.5721 211.245 82.5122 210.046 81.6129 206.965C80.7162 203.894 79.82 202.566 76.2878 199.079C71.9918 194.838 64.1114 189.77 59.0422 187.989C53.4948 186.04 46.899 187.183 44.7373 190.468C42.7871 193.432 42.8431 196.015 44.9914 202.195C46.869 207.596 47.0047 208.525 46.7366 214.182C46.3627 222.071 44.9297 225.771 38.7599 234.78C31.5119 245.362 30.6419 247.55 30.6419 255.197C30.6419 260.813 30.84 261.94 32.3718 265.046C36.8772 274.181 44.8023 279.626 53.6922 279.694C59.562 279.739 62.9649 277.651 69.6754 269.89C77.7278 260.577 81.6409 258.153 91.4168 256.425C104.652 254.086 106.596 253.555 112.484 250.676C117.859 248.047 119.317 246.929 125.541 240.661C138.119 227.994 144.659 213.892 146.914 194.583C150.157 166.802 140.669 142.612 120.446 127.1C115.629 123.405 111.464 119.318 107.504 114.399C101.632 107.103 91.4671 97.0554 86.9005 94.0327C81.9167 90.7334 75.0967 87.4963 69.0156 85.5436C66.6514 84.7844 64.7164 83.9992 64.7164 83.7982C64.7164 83.5978 65.482 82.1238 66.4182 80.5237C77.5068 61.5655 96.7121 50.9238 117.58 52.1745C139.637 53.4962 155.018 62.0278 166.702 79.4214C174.501 91.0328 177.704 99.2606 180.31 114.38C183.929 135.38 181.98 162.861 175.505 182.135C174.473 185.206 171.596 192.188 169.112 197.652C163.984 208.929 160.7 218.134 161.273 219.622C162.32 222.336 167.114 218.97 172.088 212.028C175.22 207.659 182.073 194.265 185.475 185.865C187.89 179.903 190.956 168.876 192.032 162.283C192.402 160.015 192.998 154.307 193.355 149.598C196.012 114.62 189.988 89.6825 173.455 67.2037C163.687 53.9218 146.86 43.9956 128.799 40.8593C121.984 39.6759 108.305 39.6537 101.875 40.8156ZM134.277 381.446C132.364 382.781 131.398 384.856 129.72 391.238C128.038 397.638 126.481 402.06 122.013 413.118C119.562 419.182 118.598 422.474 118.369 425.559C117.638 435.409 123.851 443.852 133.264 445.798C142.421 447.691 152.222 440.518 153.968 430.644C154.864 425.579 154.198 422.712 149.175 410.032C146.946 404.404 144.34 396.803 143.384 393.14C140.385 381.653 138.131 378.758 134.277 381.446ZM142.039 426.646C142.097 430.439 141.981 430.766 139.95 432.576C138.199 434.135 137.429 434.421 135.81 434.112C133.3 433.632 131.137 431.22 130.583 428.283C130.25 426.511 130.832 423.924 133.234 416.518L136.312 407.025L139.145 414.828C141.299 420.762 141.993 423.593 142.039 426.646ZM96.0631 446.771C93.9084 448.273 93.0766 450.306 88.4928 465.268C84.8682 477.101 84.2535 479.804 84.2019 484.152C84.1491 488.615 84.3542 489.585 85.9076 492.216C90.478 499.958 99.5406 502.292 106.621 497.55C112.717 493.468 115.015 486.59 112.818 479.009C111.633 474.922 102.705 451.586 101.266 448.813C100.527 447.389 98.6355 445.781 97.7005 445.781C97.5802 445.781 96.8433 446.226 96.0631 446.771ZM101.753 482.102C102.637 486.206 101.798 488.274 99.2502 488.274C95.5421 488.274 95.0402 485.533 97.3305 477.782L98.7362 473.024L99.9055 475.99C100.549 477.62 101.381 480.371 101.753 482.102Z" fill="#0D0D0D"/>
<rect x="320.717" width="65.7371" height="60.757" fill="#0D0D0D"/>
<rect x="52.7888" y="10.9561" width="242.032" height="301.793" fill="#0D0D0D"/>
<mask id="mask0_45_742" style="mask-type:alpha" maskUnits="userSpaceOnUse" x="0" y="0" width="231" height="500">
<mask id="path-4-inside-1_45_742" fill="white">
<path fill-rule="evenodd" clip-rule="evenodd" d="M101.02 0.85435C94.3421 1.83296 84.8128 4.38889 76.8177 7.34501C46.1207 18.6951 25.8511 37.1034 11.5748 66.598C0.806024 88.8447 -1.81611 105.364 1.11875 132.474C2.28302 143.232 4.6383 151.175 8.05658 155.874C10.0972 158.679 12.2914 159.293 13.8008 157.482C14.4855 156.66 14.446 155.524 13.5728 150.981C11.5698 140.556 11.0411 132.579 11.401 118.204C11.8838 98.9073 13.4079 91.7158 20.2718 76.3454C32.0711 49.9236 45.9341 35.1703 69.5181 23.9363C92.9773 12.7613 115.168 10.0252 138.304 15.4548C152.149 18.7046 160.354 22.7896 172.591 32.5269C190.384 46.684 207.318 73.2625 213.402 96.5772C220.869 125.197 218.968 159.187 208.129 190.877C199.38 216.452 186.433 240.759 172.687 257.416C149.889 285.041 142.858 303.416 144.048 332.255C144.343 339.408 144.249 343.564 143.751 345.387C141.646 353.089 134.07 354.93 130.764 348.542C129.735 346.554 129.431 344.227 129.063 335.541C128.564 323.725 127.691 320.583 124.061 317.542C116.808 311.465 106.429 318.391 101.577 332.544C98.1961 342.405 97.7986 349.982 99.8119 366.186C101.764 381.896 101.014 386.513 96.1943 388.441C93.4377 389.544 91.6155 388.563 90.1054 385.164C89.0622 382.815 88.6953 380.054 88.2291 371.044C87.5533 357.983 86.8171 353.383 84.751 349.324C81.2817 342.506 73.5643 339.301 67.5086 342.163C64.3196 343.67 59.8855 348.919 58.3499 353.005C55.4813 360.641 54.9406 364.816 54.9609 379.187C54.98 393.003 55.7265 401.05 58.4015 416.29C61.0593 431.43 60.695 438.239 56.8869 444.565C54.3635 448.757 51.3955 450.855 47.9874 450.855C45.9111 450.855 45.0284 450.426 43.0476 448.454C41.6489 447.061 40.2783 444.863 39.7841 443.221C38.4071 438.646 38.8255 425.057 40.8579 408.362C42.3776 395.877 42.6776 390.935 42.7075 377.919C42.747 360.747 42.091 355.854 38.5625 346.999C35.8225 340.122 32.8405 335.942 25.1378 328.179C14.8027 317.763 13.2506 313.89 11.9054 295.153C11.0277 282.928 9.97621 278.98 7.59991 278.98C6.3624 278.98 3.73325 284.885 2.6123 290.184C0.0850523 302.126 0.988197 313.879 5.09561 322.491C8.00436 328.592 9.48198 330.531 17.6019 338.914C25.0467 346.6 27.4224 350.614 29.2407 358.575C30.8126 365.458 31.0992 368.639 31.0451 378.614C30.9967 387.556 30.7699 390.36 28.6949 407.655C25.4371 434.802 25.7244 442.441 30.3566 451.923C37.9485 467.463 57.3493 467.27 66.8934 451.56C72.4746 442.373 73.1866 433.479 69.89 414.106C66.4794 394.062 65.8387 372.855 68.2608 360.183C69.7136 352.584 72.7211 350.966 74.7184 356.709C75.2165 358.142 75.8483 364.354 76.1986 371.26C76.9648 386.385 77.5979 389.242 81.4352 394.904C89.1711 406.318 106.168 402.346 111.137 387.963C112.914 382.82 113.066 377.998 111.776 367.771C109.843 352.463 110.244 342.763 113.181 333.755C114.296 330.338 116.489 327.124 117.197 327.872C117.332 328.015 117.641 332.271 117.883 337.329C118.125 342.387 118.589 347.952 118.915 349.696C120.174 356.428 124.254 361.985 129.43 364.017C130.444 364.415 133.136 364.766 135.413 364.796C142.949 364.897 149.766 360.449 153.363 353.085C156.091 347.502 156.649 343.287 156.171 331.873C155.516 316.233 157.551 305.226 163.446 292.519C166.685 285.537 170.128 280.382 178.842 269.467C197.129 246.559 209.329 224.071 219.272 194.945C238.712 137.996 231.746 83.3434 199.834 42.4144C194.201 35.1906 182.061 23.2773 175.794 18.8219C158.549 6.56427 136.752 -0.151522 114.714 0.00259491C110.16 0.0343061 103.998 0.417369 101.02 0.85435ZM101.875 40.8156C88.6291 43.2091 75.6871 50.6853 65.347 61.9156C55.4131 72.705 47.5263 88.6005 45.2335 102.453C43.3024 114.12 45.0016 131.705 49.1893 143.404C53.2362 154.708 59.0754 162.08 69.4932 169.041C76.2655 173.566 102.61 187.878 108.9 190.449C113.988 192.529 117.161 191.24 115.685 187.69C113.917 183.441 105.934 177.459 81.8027 162.302C68.0634 153.673 61.1988 144.003 57.9296 128.669C56.3704 121.358 56.3787 108.001 57.9468 101.2L59.0887 96.2455L61.1064 96.6755C73.5618 99.3278 86.3216 108.137 98.7343 122.651C102.353 126.882 107.413 132.179 109.981 134.421C121.627 144.597 125.713 149.358 129.909 157.649C134.076 165.88 136.369 179.402 135.374 189.872C133.516 209.431 127.994 221.758 115.884 233.386C109.329 239.682 103.399 242.39 93.7893 243.48C85.2274 244.451 82.0963 245.264 77.1361 247.805C72.5988 250.129 66.6558 255.49 60.9791 262.377C59.4492 264.234 57.2595 266.199 56.1137 266.743C50.295 269.505 43.4896 263.7 42.6107 255.224C42.1642 250.912 43.5501 247.793 49.1581 240.492C54.2603 233.85 56.7411 228.853 58.1047 222.474C59.3301 216.743 59.3416 207.639 58.1308 202.697C57.2411 199.068 57.2455 199.037 58.5862 199.433C65.638 201.52 74.1637 210.505 76.4565 218.268C76.9661 219.991 78.6819 220.325 80.0461 218.967C80.713 218.303 81.5804 216.161 81.9747 214.209C82.5721 211.245 82.5122 210.046 81.6129 206.965C80.7162 203.894 79.82 202.566 76.2878 199.079C71.9918 194.838 64.1114 189.77 59.0422 187.989C53.4948 186.04 46.899 187.183 44.7373 190.468C42.7871 193.432 42.8431 196.015 44.9914 202.195C46.869 207.596 47.0047 208.525 46.7366 214.182C46.3627 222.071 44.9297 225.771 38.7599 234.78C31.5119 245.362 30.6419 247.55 30.6419 255.197C30.6419 260.813 30.84 261.94 32.3718 265.046C36.8772 274.181 44.8023 279.626 53.6922 279.694C59.562 279.739 62.9649 277.651 69.6754 269.89C77.7278 260.577 81.6409 258.153 91.4168 256.425C104.652 254.086 106.596 253.555 112.484 250.676C117.859 248.047 119.317 246.929 125.541 240.661C138.119 227.994 144.659 213.892 146.914 194.583C150.157 166.802 140.669 142.612 120.446 127.1C115.629 123.405 111.464 119.318 107.504 114.399C101.632 107.103 91.4671 97.0554 86.9005 94.0327C81.9167 90.7334 75.0967 87.4963 69.0156 85.5436C66.6514 84.7844 64.7164 83.9992 64.7164 83.7982C64.7164 83.5978 65.482 82.1238 66.4182 80.5237C77.5068 61.5655 96.7121 50.9238 117.58 52.1745C139.637 53.4962 155.018 62.0278 166.702 79.4214C174.501 91.0328 177.704 99.2606 180.31 114.38C183.929 135.38 181.98 162.861 175.505 182.135C174.473 185.206 171.596 192.188 169.112 197.652C163.984 208.929 160.7 218.134 161.273 219.622C162.32 222.336 167.114 218.97 172.088 212.028C175.22 207.659 182.073 194.265 185.475 185.865C187.89 179.903 190.956 168.876 192.032 162.283C192.402 160.015 192.998 154.307 193.355 149.598C196.012 114.62 189.988 89.6825 173.455 67.2037C163.687 53.9218 146.86 43.9956 128.799 40.8593C121.984 39.6759 108.305 39.6537 101.875 40.8156ZM134.277 381.446C132.364 382.781 131.398 384.856 129.72 391.238C128.038 397.638 126.481 402.06 122.013 413.118C119.562 419.182 118.598 422.474 118.369 425.559C117.638 435.409 123.851 443.852 133.264 445.798C142.421 447.691 152.222 440.518 153.968 430.644C154.864 425.579 154.198 422.712 149.175 410.032C146.946 404.404 144.34 396.803 143.384 393.14C140.385 381.653 138.131 378.758 134.277 381.446ZM142.039 426.646C142.097 430.439 141.981 430.766 139.95 432.576C138.199 434.135 137.429 434.421 135.81 434.112C133.3 433.632 131.137 431.22 130.583 428.283C130.25 426.511 130.832 423.924 133.234 416.518L136.312 407.025L139.145 414.828C141.299 420.762 141.993 423.593 142.039 426.646ZM96.0631 446.771C93.9084 448.273 93.0766 450.306 88.4928 465.268C84.8682 477.101 84.2535 479.804 84.2019 484.152C84.1491 488.615 84.3542 489.585 85.9076 492.216C90.478 499.958 99.5406 502.292 106.621 497.55C112.717 493.468 115.015 486.59 112.818 479.009C111.633 474.922 102.705 451.586 101.266 448.813C100.527 447.389 98.6355 445.781 97.7005 445.781C97.5802 445.781 96.8433 446.226 96.0631 446.771ZM101.753 482.102C102.637 486.206 101.798 488.274 99.2502 488.274C95.5421 488.274 95.0402 485.533 97.3305 477.782L98.7362 473.024L99.9055 475.99C100.549 477.62 101.381 480.371 101.753 482.102Z"/>
</mask>
<path fill-rule="evenodd" clip-rule="evenodd" d="M101.02 0.85435C94.3421 1.83296 84.8128 4.38889 76.8177 7.34501C46.1207 18.6951 25.8511 37.1034 11.5748 66.598C0.806024 88.8447 -1.81611 105.364 1.11875 132.474C2.28302 143.232 4.6383 151.175 8.05658 155.874C10.0972 158.679 12.2914 159.293 13.8008 157.482C14.4855 156.66 14.446 155.524 13.5728 150.981C11.5698 140.556 11.0411 132.579 11.401 118.204C11.8838 98.9073 13.4079 91.7158 20.2718 76.3454C32.0711 49.9236 45.9341 35.1703 69.5181 23.9363C92.9773 12.7613 115.168 10.0252 138.304 15.4548C152.149 18.7046 160.354 22.7896 172.591 32.5269C190.384 46.684 207.318 73.2625 213.402 96.5772C220.869 125.197 218.968 159.187 208.129 190.877C199.38 216.452 186.433 240.759 172.687 257.416C149.889 285.041 142.858 303.416 144.048 332.255C144.343 339.408 144.249 343.564 143.751 345.387C141.646 353.089 134.07 354.93 130.764 348.542C129.735 346.554 129.431 344.227 129.063 335.541C128.564 323.725 127.691 320.583 124.061 317.542C116.808 311.465 106.429 318.391 101.577 332.544C98.1961 342.405 97.7986 349.982 99.8119 366.186C101.764 381.896 101.014 386.513 96.1943 388.441C93.4377 389.544 91.6155 388.563 90.1054 385.164C89.0622 382.815 88.6953 380.054 88.2291 371.044C87.5533 357.983 86.8171 353.383 84.751 349.324C81.2817 342.506 73.5643 339.301 67.5086 342.163C64.3196 343.67 59.8855 348.919 58.3499 353.005C55.4813 360.641 54.9406 364.816 54.9609 379.187C54.98 393.003 55.7265 401.05 58.4015 416.29C61.0593 431.43 60.695 438.239 56.8869 444.565C54.3635 448.757 51.3955 450.855 47.9874 450.855C45.9111 450.855 45.0284 450.426 43.0476 448.454C41.6489 447.061 40.2783 444.863 39.7841 443.221C38.4071 438.646 38.8255 425.057 40.8579 408.362C42.3776 395.877 42.6776 390.935 42.7075 377.919C42.747 360.747 42.091 355.854 38.5625 346.999C35.8225 340.122 32.8405 335.942 25.1378 328.179C14.8027 317.763 13.2506 313.89 11.9054 295.153C11.0277 282.928 9.97621 278.98 7.59991 278.98C6.3624 278.98 3.73325 284.885 2.6123 290.184C0.0850523 302.126 0.988197 313.879 5.09561 322.491C8.00436 328.592 9.48198 330.531 17.6019 338.914C25.0467 346.6 27.4224 350.614 29.2407 358.575C30.8126 365.458 31.0992 368.639 31.0451 378.614C30.9967 387.556 30.7699 390.36 28.6949 407.655C25.4371 434.802 25.7244 442.441 30.3566 451.923C37.9485 467.463 57.3493 467.27 66.8934 451.56C72.4746 442.373 73.1866 433.479 69.89 414.106C66.4794 394.062 65.8387 372.855 68.2608 360.183C69.7136 352.584 72.7211 350.966 74.7184 356.709C75.2165 358.142 75.8483 364.354 76.1986 371.26C76.9648 386.385 77.5979 389.242 81.4352 394.904C89.1711 406.318 106.168 402.346 111.137 387.963C112.914 382.82 113.066 377.998 111.776 367.771C109.843 352.463 110.244 342.763 113.181 333.755C114.296 330.338 116.489 327.124 117.197 327.872C117.332 328.015 117.641 332.271 117.883 337.329C118.125 342.387 118.589 347.952 118.915 349.696C120.174 356.428 124.254 361.985 129.43 364.017C130.444 364.415 133.136 364.766 135.413 364.796C142.949 364.897 149.766 360.449 153.363 353.085C156.091 347.502 156.649 343.287 156.171 331.873C155.516 316.233 157.551 305.226 163.446 292.519C166.685 285.537 170.128 280.382 178.842 269.467C197.129 246.559 209.329 224.071 219.272 194.945C238.712 137.996 231.746 83.3434 199.834 42.4144C194.201 35.1906 182.061 23.2773 175.794 18.8219C158.549 6.56427 136.752 -0.151522 114.714 0.00259491C110.16 0.0343061 103.998 0.417369 101.02 0.85435ZM101.875 40.8156C88.6291 43.2091 75.6871 50.6853 65.347 61.9156C55.4131 72.705 47.5263 88.6005 45.2335 102.453C43.3024 114.12 45.0016 131.705 49.1893 143.404C53.2362 154.708 59.0754 162.08 69.4932 169.041C76.2655 173.566 102.61 187.878 108.9 190.449C113.988 192.529 117.161 191.24 115.685 187.69C113.917 183.441 105.934 177.459 81.8027 162.302C68.0634 153.673 61.1988 144.003 57.9296 128.669C56.3704 121.358 56.3787 108.001 57.9468 101.2L59.0887 96.2455L61.1064 96.6755C73.5618 99.3278 86.3216 108.137 98.7343 122.651C102.353 126.882 107.413 132.179 109.981 134.421C121.627 144.597 125.713 149.358 129.909 157.649C134.076 165.88 136.369 179.402 135.374 189.872C133.516 209.431 127.994 221.758 115.884 233.386C109.329 239.682 103.399 242.39 93.7893 243.48C85.2274 244.451 82.0963 245.264 77.1361 247.805C72.5988 250.129 66.6558 255.49 60.9791 262.377C59.4492 264.234 57.2595 266.199 56.1137 266.743C50.295 269.505 43.4896 263.7 42.6107 255.224C42.1642 250.912 43.5501 247.793 49.1581 240.492C54.2603 233.85 56.7411 228.853 58.1047 222.474C59.3301 216.743 59.3416 207.639 58.1308 202.697C57.2411 199.068 57.2455 199.037 58.5862 199.433C65.638 201.52 74.1637 210.505 76.4565 218.268C76.9661 219.991 78.6819 220.325 80.0461 218.967C80.713 218.303 81.5804 216.161 81.9747 214.209C82.5721 211.245 82.5122 210.046 81.6129 206.965C80.7162 203.894 79.82 202.566 76.2878 199.079C71.9918 194.838 64.1114 189.77 59.0422 187.989C53.4948 186.04 46.899 187.183 44.7373 190.468C42.7871 193.432 42.8431 196.015 44.9914 202.195C46.869 207.596 47.0047 208.525 46.7366 214.182C46.3627 222.071 44.9297 225.771 38.7599 234.78C31.5119 245.362 30.6419 247.55 30.6419 255.197C30.6419 260.813 30.84 261.94 32.3718 265.046C36.8772 274.181 44.8023 279.626 53.6922 279.694C59.562 279.739 62.9649 277.651 69.6754 269.89C77.7278 260.577 81.6409 258.153 91.4168 256.425C104.652 254.086 106.596 253.555 112.484 250.676C117.859 248.047 119.317 246.929 125.541 240.661C138.119 227.994 144.659 213.892 146.914 194.583C150.157 166.802 140.669 142.612 120.446 127.1C115.629 123.405 111.464 119.318 107.504 114.399C101.632 107.103 91.4671 97.0554 86.9005 94.0327C81.9167 90.7334 75.0967 87.4963 69.0156 85.5436C66.6514 84.7844 64.7164 83.9992 64.7164 83.7982C64.7164 83.5978 65.482 82.1238 66.4182 80.5237C77.5068 61.5655 96.7121 50.9238 117.58 52.1745C139.637 53.4962 155.018 62.0278 166.702 79.4214C174.501 91.0328 177.704 99.2606 180.31 114.38C183.929 135.38 181.98 162.861 175.505 182.135C174.473 185.206 171.596 192.188 169.112 197.652C163.984 208.929 160.7 218.134 161.273 219.622C162.32 222.336 167.114 218.97 172.088 212.028C175.22 207.659 182.073 194.265 185.475 185.865C187.89 179.903 190.956 168.876 192.032 162.283C192.402 160.015 192.998 154.307 193.355 149.598C196.012 114.62 189.988 89.6825 173.455 67.2037C163.687 53.9218 146.86 43.9956 128.799 40.8593C121.984 39.6759 108.305 39.6537 101.875 40.8156ZM134.277 381.446C132.364 382.781 131.398 384.856 129.72 391.238C128.038 397.638 126.481 402.06 122.013 413.118C119.562 419.182 118.598 422.474 118.369 425.559C117.638 435.409 123.851 443.852 133.264 445.798C142.421 447.691 152.222 440.518 153.968 430.644C154.864 425.579 154.198 422.712 149.175 410.032C146.946 404.404 144.34 396.803 143.384 393.14C140.385 381.653 138.131 378.758 134.277 381.446ZM142.039 426.646C142.097 430.439 141.981 430.766 139.95 432.576C138.199 434.135 137.429 434.421 135.81 434.112C133.3 433.632 131.137 431.22 130.583 428.283C130.25 426.511 130.832 423.924 133.234 416.518L136.312 407.025L139.145 414.828C141.299 420.762 141.993 423.593 142.039 426.646ZM96.0631 446.771C93.9084 448.273 93.0766 450.306 88.4928 465.268C84.8682 477.101 84.2535 479.804 84.2019 484.152C84.1491 488.615 84.3542 489.585 85.9076 492.216C90.478 499.958 99.5406 502.292 106.621 497.55C112.717 493.468 115.015 486.59 112.818 479.009C111.633 474.922 102.705 451.586 101.266 448.813C100.527 447.389 98.6355 445.781 97.7005 445.781C97.5802 445.781 96.8433 446.226 96.0631 446.771ZM101.753 482.102C102.637 486.206 101.798 488.274 99.2502 488.274C95.5421 488.274 95.0402 485.533 97.3305 477.782L98.7362 473.024L99.9055 475.99C100.549 477.62 101.381 480.371 101.753 482.102Z" fill="#FF7136" stroke="#FF7136" stroke-width="2" mask="url(#path-4-inside-1_45_742)"/>
</mask>
<g mask="url(#mask0_45_742)">
<rect x="53.2888" y="11.4561" width="241.032" height="300.793" fill="#FF7136" stroke="#FF7136"/>
</g>
</svg>
