<svg width="230" height="500" viewBox="0 0 230 500" fill="none" xmlns="http://www.w3.org/2000/svg">
<path fill-rule="evenodd" clip-rule="evenodd" d="M100.985 0.85435C94.3095 1.83296 84.7834 4.38889 76.7911 7.34501C46.1047 18.6951 25.8422 37.1034 11.5708 66.598C0.805745 88.8447 -1.81549 105.364 1.11836 132.474C2.28223 143.232 4.63669 151.175 8.05379 155.874C10.0937 158.679 12.2871 159.293 13.7961 157.482C14.4805 156.66 14.441 155.524 13.5681 150.981C11.5658 140.556 11.0373 132.579 11.397 118.204C11.8796 98.9073 13.4032 91.7158 20.2648 76.3454C32.06 49.9236 45.9181 35.1703 69.494 23.9363C92.9451 12.7613 115.128 10.0252 138.256 15.4548C152.096 18.7046 160.299 22.7896 172.531 32.5269C190.318 46.684 207.246 73.2625 213.328 96.5772C220.792 125.197 218.892 159.187 208.057 190.877C199.311 216.452 186.369 240.759 172.627 257.416C149.837 285.041 142.808 303.416 143.998 332.255C144.293 339.408 144.199 343.564 143.701 345.387C141.597 353.089 134.024 354.93 130.719 348.542C129.69 346.554 129.386 344.227 129.018 335.541C128.519 323.725 127.646 320.583 124.018 317.542C116.768 311.465 106.392 318.391 101.542 332.544C98.162 342.405 97.7648 349.982 99.7773 366.186C101.729 381.896 100.979 386.513 96.161 388.441C93.4054 389.544 91.5838 388.563 90.0742 385.164C89.0313 382.815 88.6646 380.054 88.1985 371.044C87.523 357.983 86.787 353.383 84.7216 349.324C81.2536 342.506 73.5389 339.301 67.4853 342.163C64.2974 343.67 59.8648 348.919 58.3297 353.005C55.4621 360.641 54.9215 364.816 54.9419 379.187C54.961 393.003 55.7072 401.05 58.3813 416.29C61.0382 431.43 60.674 438.239 56.8672 444.565C54.3447 448.757 51.3777 450.855 47.9708 450.855C45.8952 450.855 45.0128 450.426 43.0327 448.454C41.6345 447.061 40.2644 444.863 39.7703 443.221C38.3938 438.646 38.8121 425.057 40.8438 408.362C42.3629 395.877 42.6628 390.935 42.6927 377.919C42.7322 360.747 42.0764 355.854 38.5491 346.999C35.8101 340.122 32.8292 335.942 25.1291 328.179C14.7976 317.763 13.246 313.89 11.9013 295.153C11.0239 282.928 9.97275 278.98 7.59728 278.98C6.3602 278.98 3.73196 284.885 2.61139 290.184C0.0850229 302.126 0.987855 313.879 5.09384 322.491C8.00159 328.592 9.47869 330.531 17.5958 338.914C25.038 346.6 27.4129 350.614 29.2306 358.575C30.8019 365.458 31.0885 368.639 31.0343 378.614C30.9859 387.556 30.7593 390.36 28.685 407.655C25.4283 434.802 25.7155 442.441 30.3461 451.923C37.9354 467.463 57.3295 467.27 66.8702 451.56C72.4495 442.373 73.1613 433.479 69.8658 414.106C66.4564 394.062 65.8159 372.855 68.2372 360.183C69.6895 352.584 72.6959 350.966 74.6925 356.709C75.1904 358.142 75.822 364.354 76.1722 371.26C76.9381 386.385 77.571 389.242 81.407 394.904C89.1402 406.318 106.131 402.346 111.099 387.963C112.875 382.82 113.027 377.998 111.737 367.771C109.805 352.463 110.206 342.763 113.142 333.755C114.256 330.338 116.449 327.124 117.156 327.872C117.291 328.015 117.6 332.271 117.842 337.329C118.084 342.387 118.548 347.952 118.874 349.696C120.132 356.428 124.211 361.985 129.385 364.017C130.399 364.415 133.09 364.766 135.366 364.796C142.899 364.897 149.714 360.449 153.31 353.085C156.037 347.502 156.595 343.287 156.117 331.873C155.462 316.233 157.496 305.226 163.389 292.519C166.627 285.537 170.069 280.382 178.78 269.467C197.061 246.559 209.257 224.071 219.196 194.945C238.629 137.996 231.666 83.3434 199.764 42.4144C194.134 35.1906 181.998 23.2773 175.733 18.8219C158.494 6.56427 136.704 -0.151522 114.674 0.00259491C110.122 0.0343061 103.962 0.417369 100.985 0.85435ZM101.84 40.8156C88.5984 43.2091 75.6609 50.6853 65.3243 61.9156C55.3939 72.705 47.5099 88.6005 45.2178 102.453C43.2874 114.12 44.986 131.705 49.1722 143.404C53.2178 154.708 59.0549 162.08 69.4692 169.041C76.239 173.566 102.575 187.878 108.862 190.449C113.949 192.529 117.121 191.24 115.645 187.69C113.878 183.441 105.897 177.459 81.7744 162.302C68.0398 153.673 61.1776 144.003 57.9095 128.669C56.3509 121.358 56.3592 108.001 57.9267 101.2L59.0683 96.2455L61.0853 96.6755C73.5363 99.3278 86.2917 108.137 98.7001 122.651C102.317 126.882 107.376 132.179 109.943 134.421C121.585 144.597 125.669 149.358 129.864 157.649C134.029 165.88 136.322 179.402 135.327 189.872C133.469 209.431 127.95 221.758 115.844 233.386C109.291 239.682 103.363 242.39 93.7568 243.48C85.1979 244.451 82.0679 245.264 77.1094 247.805C72.5736 250.129 66.6327 255.49 60.9579 262.377C59.4286 264.234 57.2397 266.199 56.0943 266.743C50.2775 269.505 43.4745 263.7 42.5959 255.224C42.1496 250.912 43.535 247.793 49.141 240.492C54.2415 233.85 56.7214 228.853 58.0846 222.474C59.3096 216.743 59.321 207.639 58.1107 202.697C57.2212 199.068 57.2257 199.037 58.5659 199.433C65.6153 201.52 74.138 210.505 76.4301 218.268C76.9394 219.991 78.6546 220.325 80.0184 218.967C80.685 218.303 81.5522 216.161 81.9463 214.209C82.5435 211.245 82.4837 210.046 81.5847 206.965C80.6882 203.894 79.7924 202.566 76.2613 199.079C71.9669 194.838 64.0892 189.77 59.0218 187.989C53.4762 186.04 46.8827 187.183 44.7218 190.468C42.7723 193.432 42.8283 196.015 44.9758 202.195C46.8528 207.596 46.9884 208.525 46.7204 214.182C46.3466 222.071 44.9141 225.771 38.7465 234.78C31.501 245.362 30.6313 247.55 30.6313 255.197C30.6313 260.813 30.8293 261.94 32.3606 265.046C36.8645 274.181 44.7868 279.626 53.6736 279.694C59.5413 279.739 62.9431 277.651 69.6513 269.89C77.7009 260.577 81.6127 258.153 91.3852 256.425C104.616 254.086 106.559 253.555 112.445 250.676C117.818 248.047 119.276 246.929 125.498 240.661C138.071 227.994 144.609 213.892 146.863 194.583C150.105 166.802 140.621 142.612 120.404 127.1C115.589 123.405 111.426 119.318 107.467 114.399C101.597 107.103 91.4355 97.0554 86.8704 94.0327C81.8884 90.7334 75.0707 87.4963 68.9916 85.5436C66.6283 84.7844 64.694 83.9992 64.694 83.7982C64.694 83.5978 65.4593 82.1238 66.3952 80.5237C77.4799 61.5655 96.6786 50.9238 117.539 52.1745C139.589 53.4962 154.965 62.0278 166.645 79.4214C174.441 91.0328 177.643 99.2606 180.247 114.38C183.865 135.38 181.917 162.861 175.444 182.135C174.413 185.206 171.537 192.188 169.053 197.652C163.927 208.929 160.645 218.134 161.218 219.622C162.264 222.336 167.056 218.97 172.028 212.028C175.159 207.659 182.01 194.265 185.411 185.865C187.825 179.903 190.89 168.876 191.966 162.283C192.336 160.015 192.931 154.307 193.288 149.598C195.944 114.62 189.923 89.6825 173.395 67.2037C163.63 53.9218 146.809 43.9956 128.754 40.8593C121.942 39.6759 108.268 39.6537 101.84 40.8156ZM134.231 381.446C132.318 382.781 131.353 384.856 129.675 391.238C127.994 397.638 126.437 402.06 121.97 413.118C119.521 419.182 118.557 422.474 118.328 425.559C117.597 435.409 123.808 443.852 133.217 445.798C142.372 447.691 152.169 440.518 153.915 430.644C154.811 425.579 154.145 422.712 149.124 410.032C146.895 404.404 144.29 396.803 143.334 393.14C140.337 381.653 138.083 378.758 134.231 381.446ZM141.99 426.646C142.048 430.439 141.932 430.766 139.901 432.576C138.151 434.135 137.381 434.421 135.763 434.112C133.254 433.632 131.091 431.22 130.538 428.283C130.205 426.511 130.787 423.924 133.187 416.518L136.265 407.025L139.097 414.828C141.25 420.762 141.944 423.593 141.99 426.646ZM96.0298 446.771C93.8759 448.273 93.0444 450.306 88.4621 465.268C84.8388 477.101 84.2244 479.804 84.1728 484.152C84.1199 488.615 84.325 489.585 85.8778 492.216C90.4467 499.958 99.5061 502.292 106.584 497.55C112.678 493.468 114.976 486.59 112.779 479.009C111.594 474.922 102.67 451.586 101.231 448.813C100.492 447.389 98.6014 445.781 97.6667 445.781C97.5464 445.781 96.8097 446.226 96.0298 446.771ZM101.718 482.102C102.602 486.206 101.763 488.274 99.2158 488.274C95.509 488.274 95.0073 485.533 97.2968 477.782L98.702 473.024L99.8709 475.99C100.514 477.62 101.345 480.371 101.718 482.102Z" fill="#0D0D0D"/>
</svg>
